{"title":"Haywire 2012 CAM READNFO XViD AC3-26K.","uid":6985033,"size":1148082048,"categoryP":"video","categoryS":"movies","magnet":"?xt=urn:btih:37fe4b2817b8429924259da514dd9a251eeaadef&amp;dn=Haywire+2012+CAM+READNFO+XViD+AC3-26K.&amp;tr=udp%3A%2F%2Ftracker.openbittorrent.com%3A80&amp;tr=udp%3A%2F%2Fopen.demonii.com%3A1337&amp;tr=udp%3A%2F%2Ftracker.coppersurfer.tk%3A6969&amp;tr=udp%3A%2F%2Fexodus.desync.com%3A6969","seeders":0,"leechers":0,"uploader":"moviesp2p","files":3,"time":1327536081,"description":"[code]\nHaywire 2012 CAM READNFO XViD AC3-26K\n\nImdb: &lt;a href=&quot;\nhttp://www.imdb.com/title/tt1506999/&quot; rel=&quot;nofollow&quot; target=&quot;_NEW&quot;&gt;\nhttp://www.imdb.com/title/tt1506999/&lt;/a&gt;\n\nPlot:\nA black ops super soldier seeks payback after she is betrayed and set up during a mission.\n\nSources:\nVIDEO - Lum1x THANKS\nAUDIO - yOUTUBE and Speeddy :d! thnxs\n\nNotes:\nWHY READNFO WELL THE VIDEO HAS FEW SECS MISSING IN VARIOUS PLACES... ASLO THIER IS CAM MOVEMENT WHICH CAUSES BAD AR... WHICH LASTS FOR FEW MINS... THAT BEEN SAID TAKE IT OR LEAVE IT... THNXS TO INSPIRAL FOR THIER GREAT WORK :p\n\nADDED A FEW FILTERS TO THE VIDEO TO MAKE IT LOOK NICE :p\n\n\nGreetz:\nXtreme Encode|FYA|ILLUMANTI|CM8|RX|VISION|HDSCENE|NIGHTMAREZ|xTriLL|DTRG|CRYS|REMIXHD|BIDA|RX|REFILL|INSPiRAL|SIC|ZOMBIESZ|HOPE|Anonymous\nTo all the people who have helped me :P you know who you are\n\nAnything to offer email us @: &lt;a class=&quot;__cf_email__&quot; href=&quot;/cdn-cgi/l/email-protection&quot; data-cfemail=&quot;d7e5e1bc97bfa2a4bfbab6bebbf9bab2&quot;&gt;[email&amp;#160;protected]&lt;/a&gt;&lt;script cf-hash='f9e31' type=&quot;text/javascript&quot;&gt;\n/* &lt;![CDATA[ */!function(){try{var t=&quot;currentScript&quot;in document?document.currentScript:function(){for(var t=document.getElementsByTagName(&quot;script&quot;),e=t.length;e--;)if(t[e].getAttribute(&quot;cf-hash&quot;))return t[e]}();if(t&amp;&amp;t.previousSibling){var e,r,n,i,c=t.previousSibling,a=c.getAttribute(&quot;data-cfemail&quot;);if(a){for(e=&quot;&quot;,r=parseInt(a.substr(0,2),16),n=2;a.length-n;n+=2)i=parseInt(a.substr(n,2),16)^r,e+=String.fromCharCode(i);e=document.createTextNode(e),c.parentNode.replaceChild(e,c)}}}catch(u){}}();/* ]]&gt; */&lt;/script&gt;\n\nVideo\nID                                       : 0\nFormat                                   : MPEG-4 Visual\nFormat profile                           : Advanced Simple@L5\nFormat settings, BVOP                    : 2\nFormat settings, QPel                    : No\nFormat settings, GMC                     : No warppoints\nFormat settings, Matrix                  : Default (H.263)\nCodec ID                                 : XVID\nCodec ID/Hint                            : XviD\nDuration                                 : 1h 26mn\nBit rate                                 : 1 600 Kbps\nWidth                                    : 720 pixels\nHeight                                   : 304 pixels\nDisplay aspect ratio                     : 2.35:1\nFrame rate                               : 25.000 fps\nColor space                              : YUV\nChroma subsampling                       : 4:2:0\nBit depth                                : 8 bits\nScan type                                : Progressive\nCompression mode                         : Lossy\nBits/(Pixel*Frame)                       : 0.292\nStream size                              : 993 MiB (92%)\nWriting library                          : XviD 63\n\nAudio\nID                                       : 1\nFormat                                   : AC-3\nFormat/Info                              : Audio Coding 3\nMode extension                           : CM (complete main)\nCodec ID                                 : 2000\nDuration                                 : 1h 26mn\nBit rate mode                            : Constant\nBit rate                                 : 128 Kbps\nChannel(s)                               : 2 channels\nChannel positions                        : Front: L R\nSampling rate                            : 44.1 KHz\nBit depth                                : 16 bits\nCompression mode                         : Lossy\nStream size                              : 79.4 MiB (7%)\nAlignment                                : Aligned on interleaves\nInterleave, duration                     : 35 ms (0.87 video frame)\n\n[/code]","torrent":{"xt":"urn:btih:37fe4b2817b8429924259da514dd9a251eeaadef","amp;dn":"Haywire+2012+CAM+READNFO+XViD+AC3-26K.","amp;tr":["udp%3A%2F%2Ftracker.openbittorrent.com%3A80","udp%3A%2F%2Fopen.demonii.com%3A1337","udp%3A%2F%2Ftracker.coppersurfer.tk%3A6969","udp%3A%2F%2Fexodus.desync.com%3A6969"],"infoHash":"37fe4b2817b8429924259da514dd9a251eeaadef","infoHashBuffer":{"type":"Buffer","data":[55,254,75,40,23,184,66,153,36,37,157,165,20,221,154,37,30,234,173,239]},"announce":[],"urlList":[]}}